<?xml version="1.0" encoding="UTF-8" standalone="no"?>
<!-- Created with Inkscape (http://www.inkscape.org/) -->

<svg
   width="210mm"
   height="297mm"
   viewBox="0 0 210 297"
   version="1.1"
   id="svg73"
   inkscape:version="1.2 (dc2aedaf03, 2022-05-15)"
   sodipodi:docname="logo.svg"
   xmlns:inkscape="http://www.inkscape.org/namespaces/inkscape"
   xmlns:sodipodi="http://sodipodi.sourceforge.net/DTD/sodipodi-0.dtd"
   xmlns="http://www.w3.org/2000/svg"
   xmlns:svg="http://www.w3.org/2000/svg">
  <sodipodi:namedview
     id="namedview75"
     pagecolor="#ffffff"
     bordercolor="#000000"
     borderopacity="0.25"
     inkscape:showpageshadow="2"
     inkscape:pageopacity="0.0"
     inkscape:pagecheckerboard="0"
     inkscape:deskcolor="#d1d1d1"
     inkscape:document-units="mm"
     showgrid="false"
     inkscape:zoom="0.75187991"
     inkscape:cx="180.21495"
     inkscape:cy="676.96981"
     inkscape:window-width="1920"
     inkscape:window-height="1029"
     inkscape:window-x="0"
     inkscape:window-y="27"
     inkscape:window-maximized="1"
     inkscape:current-layer="layer1" />
  <defs
     id="defs70" />
  <g
     inkscape:label="Layer 1"
     inkscape:groupmode="layer"
     id="layer1">
    <rect
       style="fill:#000000;stroke-width:2;fill-opacity:0;stroke:#00ff00;stroke-opacity:1;stroke-dasharray:none"
       id="rect129"
       width="50"
       height="50"
       x="37.658623"
       y="74.634697" />
    <rect
       style="fill:#000000;fill-opacity:0;stroke:#ff0000;stroke-width:2;stroke-dasharray:none;stroke-opacity:1"
       id="rect129-3"
       width="50"
       height="50"
       x="65.071426"
       y="102.4911" />
    <ellipse
       style="fill:#000000;fill-opacity:0;stroke:#000000;stroke-width:2;stroke-dasharray:none;stroke-opacity:1"
       id="path5515"
       cx="76.565353"
       cy="116.41227"
       rx="27.531309"
       ry="24.722692" />
    <path
       style="fill:#000000;fill-opacity:0;stroke:#000000;stroke-width:2;stroke-dasharray:none;stroke-opacity:1"
       d="m 73.271932,91.822714 c 0,0 5.688065,25.696936 -24.259735,26.770636"
       id="path5854" />
    <path
       style="fill:#000000;fill-opacity:0;stroke:#000000;stroke-width:2;stroke-dasharray:none;stroke-opacity:1"
       d="m 79.032121,92.150014 c 0,0 -5.688065,25.696936 24.259739,26.770636"
       id="path5854-6" />
    <path
       style="fill:#000000;fill-opacity:0;stroke:#000000;stroke-width:2;stroke-dasharray:none;stroke-opacity:1"
       d="m 52.222066,126.36597 c 13.002186,-9.85175 40.692625,-4.70676 49.576194,-0.517"
       id="path5878" />
    <ellipse
       style="fill:#0000ff;fill-opacity:1;stroke:#000000;stroke-width:2;stroke-dasharray:none;stroke-opacity:1"
       id="path5880"
       cx="76.523132"
       cy="114.404"
       rx="3.3605678"
       ry="2.8525269" />
    <path
       style="fill:#0000ff;fill-opacity:0.615278;stroke:#000000;stroke-width:0.1;stroke-dasharray:none;stroke-opacity:1"
       d="m 51.512168,123.64994 c -0.281818,-0.67448 -0.612256,-1.85082 -0.734306,-2.61408 l -0.221908,-1.38774 2.343851,-0.21887 c 6.16736,-0.57591 12.278828,-3.16292 15.79278,-6.68512 4.112601,-4.12226 5.947537,-8.95364 6.005743,-15.813082 l 0.03508,-4.133998 1.407583,-5.29e-4 1.407583,-5.29e-4 0.01683,4.310409 c 0.01889,4.838569 0.736952,7.903369 2.734238,11.670099 3.178495,5.99441 10.634776,10.1783 19.673014,11.03899 l 2.644154,0.25179 -0.49217,1.91658 c -0.27069,1.05412 -0.56776,1.99219 -0.66017,2.0846 -0.0924,0.0924 -1.473282,-0.25277 -3.068614,-0.76707 -7.898011,-2.5461 -14.8152,-3.56513 -24.190287,-3.56366 -9.593678,0.002 -15.028114,1.09515 -20.32776,4.09085 l -1.853237,1.04756 z m 27.057403,-5.65673 c 1.56037,-0.65196 2.32201,-1.8184 2.32201,-3.55612 0,-3.18514 -3.181567,-4.93238 -6.475384,-3.55613 -1.489855,0.6225 -2.322009,1.80514 -2.322009,3.3 0,3.27445 3.22227,5.17149 6.475383,3.81225 z"
       id="path6011" />
    <path
       style="fill:#ff0000;fill-opacity:0.615278;stroke:#000000;stroke-width:0.133;stroke-dasharray:none;stroke-opacity:1"
       d="m 99.12469,117.40802 c -12.662469,-1.90348 -19.264984,-8.97889 -19.283595,-20.664739 -0.0039,-2.434846 0.11675,-3.312877 0.473972,-3.449957 0.691973,-0.265534 4.788238,0.74808 7.306392,1.807958 5.653516,2.379531 10.572556,6.901578 12.955221,11.909668 1.52227,3.19964 2.09428,5.38353 2.22161,8.48182 0.0834,2.02864 0.0523,2.11343 -0.79297,2.1637 -0.48385,0.0288 -1.78014,-0.083 -2.88063,-0.24845 z"
       id="path6358" />
    <path
       style="fill:#00cd00;fill-opacity:0.615278;stroke:#000000;stroke-width:0.133;stroke-dasharray:none;stroke-opacity:1"
       d="m 50.276651,115.58827 c 0,-4.07113 2.162387,-9.51566 5.254461,-13.22987 3.694579,-4.43794 9.581772,-7.806469 15.81603,-9.049604 l 1.188379,-0.236966 -0.175594,4.172556 c -0.211577,5.027544 -1.038093,7.914464 -3.176857,11.096354 -3.328369,4.95167 -8.684181,7.71722 -17.234913,8.89947 l -1.671506,0.23111 z"
       id="path8154" />
    <path
       style="fill:#00009b;fill-opacity:0.615278;stroke:#000000;stroke-width:0.133;stroke-dasharray:none;stroke-opacity:1"
       d="m 71.799971,139.5778 c -5.123648,-0.91407 -10.339943,-3.42112 -13.913355,-6.68701 -2.417128,-2.20912 -4.578162,-5.10136 -4.318077,-5.77913 0.250767,-0.65349 3.629721,-2.3414 6.561193,-3.27755 4.585989,-1.46451 6.260939,-1.65561 14.427724,-1.64608 6.637379,0.008 8.633539,0.1373 12.344923,0.80125 4.756217,0.85086 10.068806,2.18405 12.122489,3.04214 l 1.269902,0.5306 -0.640278,1.0936 c -2.930769,5.00574 -9.596152,9.77238 -15.947747,11.40478 -2.729109,0.7014 -9.2798,0.98605 -11.906774,0.5174 z"
       id="path10433" />
  </g>
</svg>
